<svg width="24" height="25" viewBox="0 0 24 25" fill="none" xmlns="http://www.w3.org/2000/svg">
<path d="M12 0.0126953C9.62663 0.0126953 7.30655 0.718724 5.33316 2.0415C3.35977 3.36427 1.8217 5.24438 0.913451 7.44408C0.00519955 9.64377 -0.232441 12.0643 0.230582 14.3994C0.693604 16.7346 1.83649 18.8796 3.51472 20.5632C5.19295 22.2468 7.33115 23.3933 9.65892 23.8578C11.9867 24.3223 14.3995 24.0839 16.5922 23.1728C18.7849 22.2616 20.6591 20.7186 21.9776 18.739C23.2962 16.7593 24 14.4318 24 12.0509C24 8.85817 22.7357 5.79621 20.4853 3.5386C18.2348 1.281 15.1826 0.0126953 12 0.0126953ZM12 22.484C9.94308 22.484 7.93234 21.8721 6.22207 20.7257C4.5118 19.5793 3.17881 17.9499 2.39166 16.0435C1.60451 14.1371 1.39855 12.0393 1.79984 10.0155C2.20112 7.99168 3.19163 6.13267 4.64609 4.67358C6.10056 3.21448 7.95366 2.22082 9.97106 1.81826C11.9885 1.41569 14.0796 1.62231 15.9799 2.41196C17.8803 3.20162 19.5045 4.53886 20.6473 6.25457C21.79 7.97029 22.4 9.98743 22.4 12.0509C22.4 14.8179 21.3043 17.4716 19.3539 19.4282C17.4035 21.3848 14.7583 22.484 12 22.484Z" fill="#E81A46"/>
<path d="M12.8 4.02543C12.8 3.81258 12.7157 3.60845 12.5657 3.45794C12.4157 3.30744 12.2122 3.22288 12 3.22288C11.7878 3.22288 11.5843 3.30744 11.4343 3.45794C11.2843 3.60845 11.2 3.81258 11.2 4.02543V12.0509C11.2 12.2637 11.2843 12.4679 11.4343 12.6184C11.5843 12.7689 11.7878 12.8534 12 12.8534H20C20.2122 12.8534 20.4157 12.7689 20.5657 12.6184C20.7157 12.4679 20.8 12.2637 20.8 12.0509C20.8 11.8381 20.7157 11.6339 20.5657 11.4834C20.4157 11.3329 20.2122 11.2484 20 11.2484H12.8V4.02543Z" fill="#E81A46"/>
</svg>
